<?xml version="1.0" encoding="UTF-8" standalone="no"?><!DOCTYPE svg PUBLIC "-//W3C//DTD SVG 1.1//EN" "http://www.w3.org/Graphics/SVG/1.1/DTD/svg11.dtd"><svg width="100%" class="aams-1" height="100%" viewBox="0 0 93 57" version="1.1" xmlns="http://www.w3.org/2000/svg" xmlns:xlink="http://www.w3.org/1999/xlink" xml:space="preserve" xmlns:serif="http://www.serif.com/" style="fill-rule:evenodd;clip-rule:evenodd;stroke-linejoin:round;stroke-miterlimit:2;"><g><path d="M36.2,26.1c-10.5,4.4 -17.8,14.8 -17.8,26.9l-6.7,0c0,-14.7 8.9,-27.4 21.6,-32.9" style="fill:#00a453;fill-rule:nonzero;stroke:#000;stroke-width:0.25px;"/><path d="M61.5,19.9c12.9,5.5 22,18.2 22,33.1l-6.7,0c0,-12.1 -7.3,-22.4 -17.8,-26.9" style="fill:#eb212e;fill-rule:nonzero;stroke:#000;stroke-width:0.25px;"/><path d="M58.9,26.1c-7,-3.1 -15.3,-3.3 -22.9,-0.1l-2.6,-6.2c9.4,-4 19.5,-3.6 28.1,0.1l-2.6,6.2Z" style="fill:#fff;fill-rule:nonzero;stroke:#000;stroke-width:0.25px;"/><path d="M76.8,53.5l0,-0.5l0.6,0l-0.6,0l0,0.5l-0.6,0l0,-0.5c0,-7.9 -3.2,-15 -8.4,-20.2c-5.2,-5.2 -12.3,-8.4 -20.2,-8.4c-7.9,0 -15.1,3.2 -20.2,8.4c-5.2,5.1 -8.4,12.2 -8.4,20.2l0,0.6l-7.8,0l0,-0.6c0,-20.1 16.3,-36.4 36.5,-36.4c20.1,0 36.5,16.3 36.5,36.4l0,0.6l-7.4,0l0,-0.1Zm6.1,-1.1c-0.2,-9.5 -4.1,-18.1 -10.3,-24.4c-6.4,-6.4 -15.2,-10.3 -25,-10.3c-8.462,0 -16.178,2.907 -22.247,7.821c-0.96,0.777 -1.879,1.605 -2.753,2.479c-6.3,6.3 -10.2,14.9 -10.3,24.4l5.6,0c0.171,-9.207 4.508,-17.381 11.195,-22.722c5.079,-4.056 11.512,-6.478 18.505,-6.478c16.2,0 29.4,13 29.7,29.2l5.6,0Z" style="fill:#fff;fill-rule:nonzero;stroke:#000;stroke-width:0.25px;"/><path d="M87.3,35.6c-0.3,-0.7 -1.1,-1 -1.8,-0.7l-32.6,13.7c-0.3,-0.4 -0.7,-0.8 -1.2,-1.1l13.7,-32.7c0.3,-0.7 0,-1.5 -0.7,-1.8c-0.7,-0.3 -1.5,0 -1.7,0.7l-14.6,32.6l-0.7,0c-0.4,0 -0.7,0 -1.1,0.1l-14.5,-32.6c-0.3,-0.7 -1.1,-1 -1.7,-0.7c-0.7,0.3 -1,1.1 -0.7,1.8l13.8,32.9c-0.4,0.3 -0.7,0.6 -1,1l-33,-13.9c-0.7,-0.3 -1.5,0 -1.8,0.7c-0.3,0.7 0,1.4 0.7,1.7l32.7,14.7c0,0.3 -0.1,0.6 -0.1,1l13.4,0c0,-0.4 0,-0.8 -0.1,-1.1l32.3,-14.5c0.7,-0.4 1,-1.1 0.7,-1.8" style="fill:#fff;fill-rule:nonzero;stroke:#000;stroke-width:0.25px;stroke-linejoin:miter;stroke-miterlimit:10;"/><path d="M51.1,11.7l2.3,0l0.3,-4.2c0.1,-0.7 0,-1.6 0,-1.6c0,0 0.3,1 0.5,1.6l1,2.7l2,0l1,-2.7c0.2,-0.6 0.5,-1.6 0.5,-1.6c0,0 -0.1,0.9 0,1.6l0.3,4.2l2.3,0l-0.8,-9.4l-2.5,0l-1.4,4c-0.2,0.6 -0.5,1.6 -0.5,1.6c0,0 -0.3,-0.9 -0.5,-1.6l-1.4,-4l-2.5,0l-0.6,9.4Z" style="fill:#fff;fill-rule:nonzero;stroke:#000;stroke-width:0.25px;"/><path d="M39.8,11.7l2.4,0l-3.2,-9.4l-2.4,0l-3.2,9.4l2.4,0l0.6,-2l2.9,0l0.5,2Zm-2,-7.2c0,0 0.2,1 0.4,1.6l0.5,1.8l-1.9,0l0.5,-1.8c0.2,-0.6 0.4,-1.6 0.5,-1.6Zm4.8,7.2l3.3,0c3,0 4.8,-1.8 4.8,-4.7c0,-3 -1.9,-4.7 -4.8,-4.7l-3.3,0l0,9.4Zm2.3,-2l0,-5.4l0.9,0c1.6,0 2.6,0.9 2.6,2.7c0,1.8 -1,2.7 -2.6,2.7l-0.9,0Z" style="fill:#fff;fill-rule:nonzero;stroke:#000;stroke-width:0.25px;"/></g></svg>