<?xml version="1.0" encoding="UTF-8" standalone="no"?><!DOCTYPE svg PUBLIC "-//W3C//DTD SVG 1.1//EN" "http://www.w3.org/Graphics/SVG/1.1/DTD/svg11.dtd"><svg width="100%" height="100%" class="aams-2" viewBox="0 0 137 58" version="1.1" xmlns="http://www.w3.org/2000/svg" xmlns:xlink="http://www.w3.org/1999/xlink" xml:space="preserve" xmlns:serif="http://www.serif.com/" style="fill-rule:evenodd;clip-rule:evenodd;stroke-linejoin:round;stroke-miterlimit:2;"><g><path d="M76.3,22.3l2.2,0l-3,-8.8l-2.3,0l-3,8.8l2.2,0l0.5,-1.8l2.7,0l0.7,1.8Zm-1.9,-6.8c0,0 0.2,1 0.4,1.5l0.5,1.7l-1.7,0l0.4,-1.7c0.2,-0.5 0.4,-1.5 0.4,-1.5Zm6,2.4c0,2.9 2.1,4.6 4.3,4.6c1.5,0 2.3,-0.8 2.3,-0.8l0,0.6l1.8,0l0,-5l-3.2,0l0,1.8l1.2,0l0,0.7c0,0 -0.8,0.6 -1.8,0.6c-1.4,0 -2.5,-1 -2.5,-2.7c0,-1.3 0.8,-2.5 2.6,-2.5c1.2,0 2.1,0.8 2.1,0.8l1,-1.6c0,0 -1.1,-1.2 -3.4,-1.2c-2.5,0.2 -4.4,2.1 -4.4,4.7Zm11.6,4.4l5.7,0l0,-1.8l-3.5,0l0,-1.7l2.7,0l0,-1.8l-2.7,0l0,-1.6l3.4,0l0,-1.8l-5.6,0l0,8.7Zm8.7,0l2.2,0l0,-4.1c0,-0.6 -0.1,-1.5 -0.1,-1.5c0,0 0.4,0.9 0.7,1.5l2.5,4.1l2.2,0l0,-8.8l-2.2,0l0,4.1c0,0.6 0.1,1.5 0.1,1.5c0,0 -0.4,-0.9 -0.7,-1.5l-2.4,-4.1l-2.2,0l0,8.8l-0.1,0Zm10.5,0l6.9,0l0,-1.8l-3.5,0l-0.7,0c0,0 0.3,-0.3 0.7,-0.8l3.4,-4.8l0,-1.3l-6.7,0l0,1.8l3.9,0c0,0 -0.3,0.3 -0.7,0.8l-3.4,4.8l0,1.3l0.1,0Zm9.9,0l2.2,0l0,-8.8l-2.2,0l0,8.8Zm10.7,0l2.2,0l-3,-8.8l-2.3,0l-3,8.8l2.2,0l0.5,-1.8l2.7,0l0.7,1.8Zm-1.9,-6.8c0,0 0.2,1 0.4,1.5l0.5,1.7l-1.7,0l0.5,-1.7c0.1,-0.5 0.3,-1.5 0.3,-1.5Z" style="fill:#fff;fill-rule:nonzero;stroke:#000;stroke-width:0.35px;"/><path d="M70.4,44l2.2,0l0.3,-4l0,-1.5c0,0 0.3,0.9 0.5,1.5l0.9,2.6l1.8,0l0.9,-2.6c0.2,-0.6 0.5,-1.5 0.5,-1.5l0,1.5l0.3,4l2.2,0l-0.7,-8.8l-2.3,0l-1.3,3.7c-0.2,0.6 -0.4,1.5 -0.4,1.5c0,0 -0.2,-0.9 -0.4,-1.5l-1.3,-3.7l-2.3,0l-0.9,8.8Zm10.1,-4.5c0,2.6 1.9,4.6 4.6,4.6c2.7,0 4.6,-2 4.6,-4.6c0,-2.5 -1.9,-4.5 -4.6,-4.5c-2.6,0 -4.6,2 -4.6,4.5Zm2.2,0c0,-1.4 1.1,-2.5 2.4,-2.5c1.3,0 2.4,1.1 2.4,2.5c0,1.5 -1.1,2.6 -2.4,2.6c-1.3,0.1 -2.4,-1.1 -2.4,-2.6Zm7.8,4.5l2.2,0l0,-4.1c0,-0.6 -0.1,-1.5 -0.1,-1.5c0,0 0.4,0.9 0.7,1.5l2.5,4.1l2.2,0l0,-8.8l-2.2,0l0,4.1c0,0.6 0.1,1.5 0.1,1.5c0,0 -0.4,-0.9 -0.7,-1.5l-2.4,-4.1l-2.2,0l0,8.8l-0.1,0Zm8.3,-4.5c0,2.6 1.9,4.6 4.6,4.6c2.7,0 4.6,-2 4.6,-4.6c0,-2.5 -1.9,-4.5 -4.6,-4.5c-2.6,0 -4.6,2 -4.6,4.5Zm2.2,0c0,-1.4 1.1,-2.5 2.4,-2.5c1.3,0 2.4,1.1 2.4,2.5c0,1.5 -1.1,2.6 -2.4,2.6c-1.3,0.1 -2.4,-1.1 -2.4,-2.6Zm7.9,4.5l2.2,0l0,-2.7l1.5,0c1.7,0 2.9,-1.3 2.9,-3.1c0,-1.8 -1.2,-3 -2.9,-3l-3.7,0l0,8.8Zm2.1,-4.6l0,-2.4l1.1,0c0.7,0 1.1,0.5 1.1,1.2c0,0.7 -0.4,1.2 -1.1,1.2l-1.1,0Zm4.4,0.1c0,2.6 1.9,4.6 4.6,4.6c2.7,0 4.6,-2 4.6,-4.6c0,-2.5 -1.9,-4.5 -4.6,-4.5c-2.6,0 -4.6,2 -4.6,4.5Zm2.3,0c0,-1.4 1.1,-2.5 2.4,-2.5c1.3,0 2.4,1.1 2.4,2.5c0,1.5 -1.1,2.6 -2.4,2.6c-1.4,0.1 -2.4,-1.1 -2.4,-2.6Zm7.8,4.5l5.8,0l0,-1.8l-3.6,0l0,-7l-2.2,0l0,8.8Zm6.3,0l2.2,0l0,-8.8l-2.2,0l0,8.8Z" style="fill:#fff;fill-rule:nonzero;stroke:#000;stroke-width:0.35px;"/><path d="M70.4,33.1l3.1,0c2.8,0 4.5,-1.7 4.5,-4.4c0,-2.8 -1.8,-4.4 -4.5,-4.4l-3.1,0l0,8.8Zm2.1,-1.8l0,-5.1l0.9,0c1.5,0 2.4,0.9 2.4,2.5c0,1.7 -0.9,2.6 -2.4,2.6l-0.9,0Zm8.8,-2.6c0,2.6 1.9,4.6 4.6,4.6c2.7,0 4.6,-2 4.6,-4.6c0,-2.5 -1.9,-4.5 -4.6,-4.5c-2.7,0 -4.6,1.9 -4.6,4.5Zm2.2,0c0,-1.4 1.1,-2.5 2.4,-2.5c1.3,0 2.4,1.1 2.4,2.5c0,1.5 -1.1,2.6 -2.4,2.6c-1.4,0 -2.4,-1.1 -2.4,-2.6Zm10.1,0c0,2.9 2.1,4.6 4.3,4.6c1.5,0 2.3,-0.8 2.3,-0.8l0,0.6l1.8,0l0,-5l-3.2,0l0,1.9l1.2,0l0,0.7c0,0 -0.8,0.6 -1.8,0.6c-1.4,0 -2.5,-1 -2.5,-2.7c0,-1.3 0.8,-2.5 2.6,-2.5c1.2,0 2.1,0.8 2.1,0.8l1,-1.6c0,0 -1.1,-1.2 -3.4,-1.2c-2.4,0.1 -4.4,2 -4.4,4.6Zm17.4,4.4l2.2,0l-3,-8.8l-2.3,0l-3,8.8l2.2,0l0.5,-1.8l2.7,0l0.7,1.8Zm-1.9,-6.8c0,0 0.2,1 0.4,1.5l0.5,1.7l-1.7,0l0.5,-1.7c0.1,-0.5 0.3,-1.5 0.3,-1.5Zm7.4,6.8l2.2,0l0,-4.1c0,-0.6 -0.1,-1.5 -0.1,-1.5c0,0 0.4,0.9 0.7,1.5l2.5,4.1l2.2,0l0,-8.8l-2.2,0l0,4.1c0,0.6 0.1,1.5 0.1,1.5c0,0 -0.4,-0.9 -0.7,-1.5l-2.4,-4.1l-2.2,0l0,8.8l-0.1,0Zm11.8,0l5.7,0l0,-1.8l-3.5,0l0,-1.7l2.7,0l0,-1.8l-2.7,0l0,-1.6l3.4,0l0,-1.8l-5.5,0l0,8.7l-0.1,0Z" style="fill:#fff;fill-rule:nonzero;stroke:#000;stroke-width:0.35px;"/><rect x="63.2" y="0.9" width="0.7" height="55.4" style="fill:#fff;fill-rule:nonzero;stroke:#000;stroke-width:0.35px;"/><path d="M29.1,1.1l0.8,2.3l2.4,0.1l-1.8,1.5l0.6,2.3l-2,-1.3l-2.1,1.3l0.7,-2.3l-1.9,-1.5l2.4,-0.1l0.9,-2.3Z" style="fill:#fff;fill-rule:nonzero;stroke:#000;stroke-width:0.35px;"/><path d="M42.9,4.9l-0.4,2.4l2,1.3l-2.3,0.4l-0.7,2.3l-1,-2.2l-2.5,0.2l1.8,-1.7l-0.9,-2.3l2.1,1.1l1.9,-1.5Z" style="fill:#fff;fill-rule:nonzero;stroke:#000;stroke-width:0.35px;"/><path d="M52.9,15l-1.5,1.8l1.1,2.2l-2.3,-0.9l-1.7,1.7l0.2,-2.4l-2.2,-1.1l2.3,-0.6l0.4,-2.4l1.3,2l2.4,-0.3Z" style="fill:#fff;fill-rule:nonzero;stroke:#000;stroke-width:0.35px;"/><path d="M56.6,28.7l-2.3,0.8l-0.1,2.4l-1.5,-1.8l-2.3,0.6l1.3,-2l-1.3,-2l2.3,0.6l1.5,-1.9l0.1,2.4l2.3,0.9Z" style="fill:#fff;fill-rule:nonzero;stroke:#000;stroke-width:0.35px;"/><path d="M52.9,42.5l-2.4,-0.4l-1.3,2l-0.4,-2.3l-2.3,-0.6l2.2,-1.1l-0.2,-2.4l1.7,1.7l2.3,-0.9l-1.1,2.1l1.5,1.9Z" style="fill:#fff;fill-rule:nonzero;stroke:#000;stroke-width:0.35px;"/><path d="M43.1,52.5l-1.9,-1.5l-2.2,1.1l0.9,-2.3l-1.8,-1.6l2.4,0.1l1.1,-2.2l0.7,2.3l2.3,0.4l-2,1.3l0.5,2.4Z" style="fill:#fff;fill-rule:nonzero;stroke:#000;stroke-width:0.35px;"/><path d="M29,56.3l-0.8,-2.2l-2.4,-0.1l1.8,-1.6l-0.6,-2.3l2,1.3l2,-1.3l-0.6,2.3l1.9,1.5l-2.4,0.2l-0.9,2.2Z" style="fill:#fff;fill-rule:nonzero;stroke:#000;stroke-width:0.35px;"/><path d="M15.4,52.7l0.3,-2.4l-2,-1.2l2.4,-0.4l0.6,-2.4l1.1,2.2l2.4,-0.2l-1.7,1.7l0.9,2.3l-2.2,-1.1l-1.8,1.5Z" style="fill:#fff;fill-rule:nonzero;stroke:#000;stroke-width:0.35px;"/><path d="M5.3,42.9l1.5,-1.9l-1.2,-2.2l2.3,0.9l1.7,-1.8l-0.1,2.4l2.1,1.1l-2.3,0.7l-0.3,2.3l-1.3,-2l-2.4,0.5Z" style="fill:#fff;fill-rule:nonzero;stroke:#000;stroke-width:0.35px;"/><path d="M1.4,28.8l2.2,-0.9l0.1,-2.4l1.6,1.9l2.3,-0.7l-1.3,2.1l1.3,2l-2.3,-0.6l-1.5,1.8l-0.2,-2.4l-2.2,-0.8Z" style="fill:#fff;fill-rule:nonzero;stroke:#000;stroke-width:0.35px;"/><path d="M5,15l2.4,0.4l1.3,-2l0.4,2.3l2.3,0.6l-2.1,1.1l0.1,2.4l-1.7,-1.7l-2.2,0.9l1.1,-2.1l-1.6,-1.9Z" style="fill:#fff;fill-rule:nonzero;stroke:#000;stroke-width:0.35px;"/><path d="M15.2,4.8l1.9,1.5l2.1,-1.1l-0.8,2.3l1.7,1.7l-2.4,-0.1l-1.1,2.1l-0.6,-2.3l-2.4,-0.4l2,-1.3l-0.4,-2.4Z" style="fill:#fff;fill-rule:nonzero;stroke:#000;stroke-width:0.35px;"/><path d="M26.2,25c1.8,0.7 3.1,1.2 4.6,1.7c1.6,0.5 3.3,0.8 5.1,0.8c1.8,0 3.5,-0.3 5.2,-0.8c1,-0.3 1.8,-0.8 2.6,-1.4l2.7,-2l-13.3,0l-4,-13.1l-4.1,13.1l-3.7,0c1.7,0.5 3.3,1.1 4.9,1.7Z" style="fill:#fff;fill-rule:nonzero;stroke:#000;stroke-width:0.35px;"/><path d="M18.2,26.3c2.7,0.7 5.4,1.7 8,2.7c1.8,0.7 3.1,1.2 4.6,1.7c1.6,0.5 3.2,0.8 4.9,0.8l2.8,-2.2c-0.9,0.1 -1.8,0.2 -2.7,0.2c-1.8,0 -3.5,-0.3 -5.1,-0.8c-1.5,-0.5 -2.8,-1 -4.6,-1.7c-2.6,-1 -5.2,-2 -8,-2.7c-1.4,-0.4 -2.8,-0.5 -4.3,-0.5l-0.1,0c-0.5,0 -0.9,0 -1.4,0.1l2.5,1.9c1.3,0.1 2.4,0.2 3.4,0.5Z" style="fill:#00a557;fill-rule:nonzero;stroke:#000;stroke-width:0.35px;"/><path d="M22.5,31.6c1.3,0.4 2.5,0.9 3.8,1.4c1.8,0.7 3.1,1.2 4.6,1.7c1.6,0.5 3.3,0.8 5.1,0.8l0.8,0l-0.6,-2l-0.2,0c-1.8,0 -3.5,-0.3 -5.1,-0.8c-1.5,-0.5 -2.8,-1 -4.6,-1.7c-2.6,-1 -5.2,-2 -8,-2.7l4.2,3.3Z" style="fill:#d93740;fill-rule:nonzero;stroke:#000;stroke-width:0.35px;"/><path d="M36,37.4c-1.8,0 -3.5,-0.3 -5.1,-0.8c-1.5,-0.5 -2.8,-1 -4.6,-1.7c-1.4,-0.5 -2.9,-1.1 -4.3,-1.6l-3.5,11.5l10.6,-8.1l10.6,8.1l-2.3,-7.5c-0.5,0.1 -1,0.1 -1.4,0.1Z" style="fill:#fff;fill-rule:nonzero;stroke:#000;stroke-width:0.35px;"/></g></svg>