<?xml version="1.0" encoding="UTF-8" standalone="no"?><!DOCTYPE svg PUBLIC "-//W3C//DTD SVG 1.1//EN" "http://www.w3.org/Graphics/SVG/1.1/DTD/svg11.dtd"><svg width="100%" height="100%" class="aams-3" viewBox="0 0 20 20" version="1.1" xmlns="http://www.w3.org/2000/svg" xmlns:xlink="http://www.w3.org/1999/xlink" xml:space="preserve" xmlns:serif="http://www.serif.com/" style="fill-rule:evenodd;clip-rule:evenodd;stroke-linejoin:round;stroke-miterlimit:2;"><g id="_x34_4-18Plus_movie"><path d="M6.327,13.406l0,-5.43l-1.255,0l0,-1.391l2.987,0l0,6.821l-1.732,0Z" style="fill:#fff;fill-rule:nonzero;stroke:#000;stroke-width:0.3px;"/><path d="M14.568,8.346c0,0.593 -0.321,1.119 -0.856,1.411c0.749,0.311 1.217,0.963 1.217,1.722c0,1.226 -1.09,2.005 -2.793,2.005c-1.703,0 -2.793,-0.769 -2.793,-1.976c0,-0.778 0.506,-1.44 1.294,-1.751c-0.574,-0.321 -0.944,-0.866 -0.944,-1.46c0,-1.09 0.954,-1.781 2.433,-1.781c1.499,0 2.442,0.711 2.442,1.83Zm-3.59,2.987c0,0.574 0.409,0.895 1.158,0.895c0.749,0 1.167,-0.311 1.167,-0.895c0,-0.564 -0.418,-0.885 -1.167,-0.885c-0.749,0 -1.158,0.321 -1.158,0.885Zm0.175,-2.89c0,0.487 0.35,0.759 0.983,0.759c0.632,0 0.983,-0.272 0.983,-0.759c0,-0.506 -0.351,-0.788 -0.983,-0.788c-0.633,0 -0.983,0.282 -0.983,0.788Z" style="fill:#fff;fill-rule:nonzero;stroke:#000;stroke-width:0.35px;"/><path d="M17.811,7.355c0.288,0.849 0.434,1.738 0.434,2.645c0,4.546 -3.699,8.245 -8.245,8.245c-4.546,0 -8.245,-3.699 -8.245,-8.245c0,-4.546 3.699,-8.245 8.245,-8.245c0.907,0 1.796,0.146 2.645,0.434l0,-1.834c-0.858,-0.236 -1.744,-0.355 -2.645,-0.355c-5.514,0 -10,4.486 -10,10c0,5.514 4.486,10 10,10c5.514,0 10,-4.486 10,-10c0,-0.9 -0.119,-1.787 -0.355,-2.645l-1.834,0Z" style="fill:#fff;fill-rule:nonzero;stroke:#000;stroke-width:0.3px;"/><path d="M17.312,2.683l0,-1.918l-1.379,0l0,1.918l-1.906,0l0,1.378l1.906,0l0,1.918l1.379,0l0,-1.918l1.917,0l0,-1.378l-1.917,0Z" style="fill:#fff;fill-rule:nonzero;stroke:#000;stroke-width:0.25px;"/></g></svg>